# xmcd CD database file
#
# Track frame offsets:
#	150
#	11687
#	27454
#	53857
#	67642
#	84006
#	101045
#	120331
#	130982
#	143611
#	154314
#	168454
#
# Disc length: 2394 seconds
#
# Revision: 1
# Processed by: cddbd v1.5.1PL0 Copyright (c) Steve Scherf et al.
# Submitted via: CDex 1.51
#
DISCID=9109580c
DTITLE=Charles Aznavour - Only the best
DYEAR=2004
DGENRE=Blues
TTITLE0=She
TTITLE1=Yesterday When I Was Young
TTITLE2=Happy Anniversary
TTITLE3=In Your Room
TTITLE4=In Times To Be
TTITLE5=To Die Of Love
TTITLE6=Lets Turn Out The Light
TTITLE7=Donne Les 16 Ans
TTITLE8=Et Pourtant
TTITLE9=Les Comediens
TTITLE10=Tu Etais Trop Jolie
TTITLE11=Jezebel
EXTD=YEAR: 2004
EXTT0=
EXTT1=
EXTT2=
EXTT3=
EXTT4=
EXTT5=
EXTT6=
EXTT7=
EXTT8=
EXTT9=
EXTT10=
EXTT11=
PLAYORDER=
